<?xml version="1.0" encoding="UTF-8" standalone="no" ?>
<!DOCTYPE svg PUBLIC "-//W3C//DTD SVG 1.1//EN" "http://www.w3.org/Graphics/SVG/1.1/DTD/svg11.dtd">
<svg xmlns="http://www.w3.org/2000/svg" xmlns:xlink="http://www.w3.org/1999/xlink" version="1.1" width="1080" height="1080" viewBox="0 0 1080 1080" xml:space="preserve">
<desc>Created with Fabric.js 5.2.4</desc>
<defs>
</defs>
<rect x="0" y="0" width="100%" height="100%" fill="transparent"></rect>
<g transform="matrix(1 0 0 1 540 540)" id="ca87d136-3f47-4529-be94-5f6d4bb26344"  >
<rect style="stroke: none; stroke-width: 1; stroke-dasharray: none; stroke-linecap: butt; stroke-dashoffset: 0; stroke-linejoin: miter; stroke-miterlimit: 4; fill: rgb(255,255,255); fill-rule: nonzero; opacity: 1; visibility: hidden;" vector-effect="non-scaling-stroke"  x="-540" y="-540" rx="0" ry="0" width="1080" height="1080" />
</g>
<g transform="matrix(1 0 0 1 540 540)" id="7043bd9b-bc16-4da5-8d46-f93c21e03594"  >
</g>
<g transform="matrix(0.76 0 0 2.73 540 218.4)"  >
<path style="stroke: none; stroke-width: 11; stroke-dasharray: none; stroke-linecap: butt; stroke-dashoffset: 0; stroke-linejoin: miter; stroke-miterlimit: 4; fill: rgb(0,0,0); fill-rule: nonzero; opacity: 1;"  transform=" translate(-720, -221.14)" d="M 0 256 L 40 234.7 C 80 213 160 171 240 165.3 C 320 160 400 192 480 213.3 C 560 235 640 245 720 218.7 C 800 192 880 128 960 122.7 C 1040 117 1120 171 1200 192 C 1280 213 1360 203 1400 197.3 L 1440 192 L 1440 320 L 1400 320 C 1360 320 1280 320 1200 320 C 1120 320 1040 320 960 320 C 880 320 800 320 720 320 C 640 320 560 320 480 320 C 400 320 320 320 240 320 C 160 320 80 320 40 320 L 0 320 L 0 256 Z" stroke-linecap="round" />
</g>
<g transform="matrix(0.75 0 0 1.22 540 627.33)"  >
<path style="stroke: none; stroke-width: 1; stroke-dasharray: none; stroke-linecap: butt; stroke-dashoffset: 0; stroke-linejoin: miter; stroke-miterlimit: 4; fill: rgb(0,0,0); fill-rule: nonzero; opacity: 1;"  transform=" translate(-720, -221.14)" d="M 0 256 L 40 234.7 C 80 213 160 171 240 165.3 C 320 160 400 192 480 213.3 C 560 235 640 245 720 218.7 C 800 192 880 128 960 122.7 C 1040 117 1120 171 1200 192 C 1280 213 1360 203 1400 197.3 L 1440 192 L 1440 320 L 1400 320 C 1360 320 1280 320 1200 320 C 1120 320 1040 320 960 320 C 880 320 800 320 720 320 C 640 320 560 320 480 320 C 400 320 320 320 240 320 C 160 320 80 320 40 320 L 0 320 L 0 256 Z" stroke-linecap="round" />
</g>
<g transform="matrix(0.75 0 0 0.75 540 813.13)"  >
<path style="stroke: none; stroke-width: 1; stroke-dasharray: none; stroke-linecap: butt; stroke-dashoffset: 0; stroke-linejoin: miter; stroke-miterlimit: 4; fill: rgb(0,0,0); fill-rule: nonzero; opacity: 1;"  transform=" translate(-720, -221.14)" d="M 0 256 L 40 234.7 C 80 213 160 171 240 165.3 C 320 160 400 192 480 213.3 C 560 235 640 245 720 218.7 C 800 192 880 128 960 122.7 C 1040 117 1120 171 1200 192 C 1280 213 1360 203 1400 197.3 L 1440 192 L 1440 320 L 1400 320 C 1360 320 1280 320 1200 320 C 1120 320 1040 320 960 320 C 880 320 800 320 720 320 C 640 320 560 320 480 320 C 400 320 320 320 240 320 C 160 320 80 320 40 320 L 0 320 L 0 256 Z" stroke-linecap="round" />
</g>
</svg>